<svg width="536" height="228" viewBox="0 0 536 228" fill="none" xmlns="http://www.w3.org/2000/svg">
<g clip-path="url(#clip0)">
<g filter="url(#filter0_d)">
<path d="M20.0144 111.268C18.3932 109.391 18.3932 106.609 20.0144 104.732L98.1576 14.2483C101.186 10.742 106.942 12.8835 106.942 17.5164L106.942 198.484C106.942 203.116 101.186 205.258 98.1576 201.752L20.0144 111.268Z" fill="#FF9F1C"/>
</g>
<g filter="url(#filter1_d)">
<path d="M171.321 72.4763L35.3013 123.807L94.482 200.627C96.5728 203.341 100.442 203.23 102.204 200.406L177.118 80.3349C179.679 76.2303 175.692 70.8265 171.321 72.4763Z" fill="#556CBC" fill-opacity="0.7"/>
<path d="M35.3013 123.807L171.321 72.4763C175.692 70.8265 179.679 76.2303 177.118 80.3348L102.204 200.406C100.442 203.23 96.5728 203.341 94.482 200.627L35.3013 123.807ZM35.3013 123.807L28.53 119.408" stroke="black" stroke-opacity="0.4"/>
</g>
<path d="M222.05 34.3926L218.144 26.043L205.692 28.5088L206.156 37.4443H209.843L213.896 31.5605V46.4043L209.647 39.8613L206.303 40.252L206.962 52.459L214.14 55.5107L195.512 57.4883L200.81 52.752L202.104 29.3389L195.438 23.4551L222.05 22.5029V34.3926ZM244.877 33.2451L245.829 54.2412L250.224 56.292L240.214 58.1475L240.678 50.9941C240.222 51.9544 239.701 52.874 239.115 53.7529C238.529 54.6156 237.87 55.3805 237.138 56.0479C236.405 56.6989 235.6 57.2197 234.721 57.6104C233.858 58.001 232.922 58.1963 231.913 58.1963C230.709 58.1963 229.651 57.9847 228.739 57.5615C227.828 57.1383 227.063 56.5605 226.444 55.8281C225.826 55.0794 225.354 54.2087 225.028 53.2158C224.719 52.2067 224.564 51.1325 224.564 49.9932C224.564 48.9352 224.646 47.8366 224.809 46.6973C224.971 45.5579 225.191 44.4349 225.468 43.3281C225.761 42.2051 226.103 41.1227 226.493 40.0811C226.9 39.0231 227.34 38.0465 227.812 37.1514L222.66 35.9551L232.328 32.6592C231.71 34.3031 231.229 35.8818 230.888 37.3955C230.562 38.8929 230.318 40.2275 230.155 41.3994C229.976 42.7666 229.862 44.0361 229.813 45.208C229.813 46.7217 229.919 48.0319 230.131 49.1387C230.342 50.2292 230.635 51.1406 231.01 51.873C231.384 52.5892 231.832 53.1263 232.353 53.4844C232.873 53.8262 233.443 53.9971 234.062 53.9971C235.006 53.9971 235.852 53.7448 236.601 53.2402C237.349 52.7357 238.008 52.0602 238.578 51.2139C239.164 50.3512 239.66 49.3503 240.067 48.2109C240.491 47.0716 240.832 45.8672 241.093 44.5977C241.369 43.3281 241.573 42.0342 241.703 40.7158C241.833 39.3975 241.907 38.1279 241.923 36.9072L236.625 33.2451H244.877ZM255.985 48.04C256.197 48.9515 256.482 49.8467 256.84 50.7256C257.198 51.5882 257.637 52.3613 258.158 53.0449C258.679 53.7285 259.281 54.2819 259.965 54.7051C260.648 55.1283 261.422 55.3398 262.284 55.3398C263.424 55.3398 264.416 55.1038 265.263 54.6318C266.109 54.1598 266.801 53.5658 267.338 52.8496C267.875 52.1172 268.249 51.3197 268.461 50.457C268.673 49.5781 268.713 48.7399 268.583 47.9424C269.039 48.1214 269.413 48.3574 269.706 48.6504C270.015 48.9434 270.251 49.2689 270.414 49.627C270.593 49.9688 270.715 50.3268 270.78 50.7012C270.845 51.0592 270.878 51.4092 270.878 51.751C270.878 52.5322 270.65 53.2891 270.194 54.0215C269.739 54.7376 269.096 55.3805 268.266 55.9502C267.452 56.5036 266.483 56.9512 265.36 57.293C264.237 57.6348 263.008 57.8057 261.674 57.8057C259.883 57.8057 258.28 57.4557 256.864 56.7559C255.465 56.056 254.276 55.112 253.3 53.9238C252.323 52.7194 251.575 51.3115 251.054 49.7002C250.533 48.0889 250.272 46.3717 250.272 44.5488C250.272 42.6934 250.533 40.9844 251.054 39.4219C251.575 37.8431 252.34 36.5003 253.349 35.3936C254.374 34.2868 255.627 33.4486 257.108 32.8789C258.59 32.3092 260.299 32.0814 262.235 32.1953C263.57 32.293 264.799 32.6755 265.922 33.3428C267.045 34.0101 268.021 34.8727 268.852 35.9307C269.698 36.9723 270.373 38.1686 270.878 39.5195C271.399 40.8704 271.716 42.2783 271.83 43.7432L255.985 48.04ZM255.521 44.1094C255.521 44.3372 255.521 44.5651 255.521 44.793C255.521 45.0046 255.538 45.2243 255.57 45.4521L266.288 41.5459C265.93 40.374 265.523 39.373 265.067 38.543C264.628 37.6966 264.164 37.0049 263.676 36.4678C263.188 35.9307 262.691 35.54 262.187 35.2959C261.698 35.0355 261.226 34.9053 260.771 34.9053C260.087 34.9053 259.485 35.0355 258.964 35.2959C258.443 35.5563 257.987 35.9144 257.597 36.3701C257.222 36.8096 256.897 37.3304 256.62 37.9326C256.36 38.5348 256.148 39.1777 255.985 39.8613C255.823 40.5449 255.701 41.2529 255.619 41.9854C255.554 42.7015 255.521 43.4095 255.521 44.1094ZM279.96 53.9482L284.843 55.9014L272.611 57.0977L277.006 53.6553L276.249 27.2881L270.609 24.8467L282.963 23.2109L279.96 53.9482ZM307.377 33.2451L308.329 54.2412L312.724 56.292L302.714 58.1475L303.178 50.9941C302.722 51.9544 302.201 52.874 301.615 53.7529C301.029 54.6156 300.37 55.3805 299.638 56.0479C298.905 56.6989 298.1 57.2197 297.221 57.6104C296.358 58.001 295.422 58.1963 294.413 58.1963C293.209 58.1963 292.151 57.9847 291.239 57.5615C290.328 57.1383 289.563 56.5605 288.944 55.8281C288.326 55.0794 287.854 54.2087 287.528 53.2158C287.219 52.2067 287.064 51.1325 287.064 49.9932C287.064 48.9352 287.146 47.8366 287.309 46.6973C287.471 45.5579 287.691 44.4349 287.968 43.3281C288.261 42.2051 288.603 41.1227 288.993 40.0811C289.4 39.0231 289.84 38.0465 290.312 37.1514L285.16 35.9551L294.828 32.6592C294.21 34.3031 293.729 35.8818 293.388 37.3955C293.062 38.8929 292.818 40.2275 292.655 41.3994C292.476 42.7666 292.362 44.0361 292.313 45.208C292.313 46.7217 292.419 48.0319 292.631 49.1387C292.842 50.2292 293.135 51.1406 293.51 51.873C293.884 52.5892 294.332 53.1263 294.853 53.4844C295.373 53.8262 295.943 53.9971 296.562 53.9971C297.506 53.9971 298.352 53.7448 299.101 53.2402C299.849 52.7357 300.508 52.0602 301.078 51.2139C301.664 50.3512 302.16 49.3503 302.567 48.2109C302.991 47.0716 303.332 45.8672 303.593 44.5977C303.869 43.3281 304.073 42.0342 304.203 40.7158C304.333 39.3975 304.407 38.1279 304.423 36.9072L299.125 33.2451H307.377ZM320.536 35.6621C320.91 35.2064 321.317 34.7913 321.757 34.417C322.196 34.0264 322.676 33.6927 323.197 33.416C323.718 33.123 324.271 32.8952 324.857 32.7324C325.46 32.5697 326.103 32.4883 326.786 32.4883C328.039 32.5371 329.228 32.8301 330.351 33.3672C331.49 33.9043 332.483 34.6774 333.329 35.6865C334.192 36.6794 334.875 37.9082 335.38 39.373C335.884 40.8216 336.137 42.4818 336.137 44.3535C336.137 46.6322 335.868 48.626 335.331 50.335C334.794 52.0439 334.062 53.4681 333.134 54.6074C332.206 55.7305 331.116 56.5768 329.862 57.1465C328.625 57.7161 327.299 58.001 325.883 58.001C324.646 58.001 323.498 57.7894 322.44 57.3662C321.382 56.943 320.463 56.3571 319.682 55.6084L319.438 61.1016L324.32 63.7383L312.333 65.7891L316.02 62.1025L315.019 35.9551L310.575 34.1973L320.683 32.4883L320.536 35.6621ZM326.029 35.5889C325.801 35.5889 325.476 35.6296 325.053 35.7109C324.63 35.7923 324.149 35.9795 323.612 36.2725C323.091 36.5654 322.538 36.9886 321.952 37.542C321.382 38.0954 320.837 38.8441 320.316 39.7881L319.828 51.9463C320.349 52.7601 320.984 53.4355 321.732 53.9727C322.497 54.4935 323.344 54.7539 324.271 54.7539C325.378 54.7539 326.33 54.4772 327.128 53.9238C327.925 53.3704 328.576 52.6055 329.081 51.6289C329.602 50.6361 329.976 49.4723 330.204 48.1377C330.448 46.8031 330.57 45.3545 330.57 43.792C330.57 42.6527 330.473 41.5866 330.277 40.5938C330.082 39.5846 329.797 38.7139 329.423 37.9814C329.049 37.2327 328.576 36.6468 328.007 36.2236C327.437 35.8005 326.778 35.5889 326.029 35.5889Z" fill="black" fill-opacity="0.7"/>
<path d="M222.855 100.097L195.341 101.195L201.444 94.9453L203.153 72.46L195.805 68.8467L221.952 66.9912L222.392 78.4414L217.851 70.3115L206.693 72.0938L207.06 83.6416L209.599 83.2998L214.652 76.6104L214.994 91.9912L210.6 85.6924L207.108 86.2051L207.401 96.2881L218.339 97.2891L222.44 87.0596L222.855 100.097ZM246.562 97.9482L251.957 99.9502L243.119 101.659L243.217 96.8984C242.826 97.5658 242.379 98.2087 241.874 98.8271C241.369 99.4294 240.8 99.9665 240.165 100.438C239.547 100.91 238.855 101.285 238.09 101.562C237.325 101.854 236.495 102.001 235.6 102.001C234.33 101.968 233.126 101.684 231.986 101.146C230.863 100.609 229.87 99.8444 229.008 98.8516C228.161 97.8424 227.486 96.6136 226.981 95.165C226.493 93.7002 226.249 92.0319 226.249 90.1602C226.249 87.8815 226.518 85.8877 227.055 84.1787C227.592 82.4697 228.324 81.0456 229.252 79.9062C230.18 78.7669 231.262 77.9124 232.499 77.3428C233.752 76.7731 235.087 76.4883 236.503 76.4883C237.935 76.4883 239.262 76.7975 240.482 77.416C241.719 78.0182 242.729 78.832 243.51 79.8574L243.607 74.0957L237.65 71.8496L249.711 69.7012L246.562 97.9482ZM236.356 98.9004C236.405 98.9004 236.568 98.8841 236.845 98.8516C237.121 98.819 237.463 98.7376 237.87 98.6074C238.277 98.4609 238.725 98.2493 239.213 97.9727C239.717 97.696 240.214 97.3135 240.702 96.8252C241.207 96.3206 241.687 95.694 242.143 94.9453C242.598 94.1966 242.989 93.2852 243.314 92.2109L243.461 84.252C243.217 83.666 242.908 83.1045 242.533 82.5674C242.175 82.0303 241.768 81.5583 241.312 81.1514C240.873 80.7282 240.377 80.3945 239.823 80.1504C239.286 79.89 238.716 79.7598 238.114 79.7598C236.991 79.7598 236.031 80.0365 235.233 80.5898C234.452 81.1432 233.801 81.9082 233.28 82.8848C232.776 83.8613 232.401 85.0169 232.157 86.3516C231.929 87.6862 231.815 89.1348 231.815 90.6973C231.815 91.8529 231.913 92.9352 232.108 93.9443C232.304 94.9372 232.589 95.7998 232.963 96.5322C233.337 97.2646 233.809 97.8424 234.379 98.2656C234.949 98.6888 235.608 98.9004 236.356 98.9004ZM273.979 77.2451L274.931 98.2412L279.325 100.292L269.315 102.147L269.779 94.9941C269.324 95.9544 268.803 96.874 268.217 97.7529C267.631 98.6156 266.972 99.3805 266.239 100.048C265.507 100.699 264.701 101.22 263.822 101.61C262.96 102.001 262.024 102.196 261.015 102.196C259.81 102.196 258.752 101.985 257.841 101.562C256.929 101.138 256.164 100.561 255.546 99.8281C254.927 99.0794 254.455 98.2087 254.13 97.2158C253.821 96.2067 253.666 95.1325 253.666 93.9932C253.666 92.9352 253.747 91.8366 253.91 90.6973C254.073 89.5579 254.293 88.4349 254.569 87.3281C254.862 86.2051 255.204 85.1227 255.595 84.0811C256.002 83.0231 256.441 82.0465 256.913 81.1514L251.762 79.9551L261.43 76.6592C260.811 78.3031 260.331 79.8818 259.989 81.3955C259.664 82.8929 259.42 84.2275 259.257 85.3994C259.078 86.7666 258.964 88.0361 258.915 89.208C258.915 90.7217 259.021 92.0319 259.232 93.1387C259.444 94.2292 259.737 95.1406 260.111 95.873C260.486 96.5892 260.933 97.1263 261.454 97.4844C261.975 97.8262 262.545 97.9971 263.163 97.9971C264.107 97.9971 264.953 97.7448 265.702 97.2402C266.451 96.7357 267.11 96.0602 267.68 95.2139C268.266 94.3512 268.762 93.3503 269.169 92.2109C269.592 91.0716 269.934 89.8672 270.194 88.5977C270.471 87.3281 270.674 86.0342 270.805 84.7158C270.935 83.3975 271.008 82.1279 271.024 80.9072L265.727 77.2451H273.979ZM291.166 76.6104C292.533 76.6104 293.77 76.9115 294.877 77.5137C296 78.0996 296.903 78.8971 297.587 79.9062L302.519 74.9014L298.466 88.1094C298.319 86.7422 298.091 85.5866 297.782 84.6426C297.473 83.6823 297.115 82.8929 296.708 82.2744C296.317 81.6396 295.902 81.1514 295.463 80.8096C295.04 80.4678 294.641 80.2155 294.267 80.0527C293.909 79.89 293.591 79.7923 293.314 79.7598C293.054 79.7272 292.891 79.7109 292.826 79.7109C291.654 79.7109 290.596 79.9388 289.652 80.3945C288.708 80.8503 287.895 81.5176 287.211 82.3965C286.544 83.2754 286.031 84.3577 285.673 85.6436C285.315 86.9131 285.136 88.3617 285.136 89.9893C285.136 91.5518 285.323 92.9352 285.697 94.1396C286.072 95.3278 286.568 96.3288 287.187 97.1426C287.805 97.9564 288.513 98.5749 289.311 98.998C290.108 99.4049 290.93 99.6084 291.776 99.6084C292.769 99.6084 293.689 99.3887 294.535 98.9492C295.382 98.4935 296.106 97.8994 296.708 97.167C297.31 96.4346 297.758 95.5964 298.051 94.6523C298.36 93.6921 298.466 92.7074 298.368 91.6982C298.563 91.8773 298.767 92.097 298.979 92.3574C299.206 92.6178 299.41 92.9108 299.589 93.2363C299.784 93.5456 299.939 93.8874 300.053 94.2617C300.167 94.6198 300.224 94.986 300.224 95.3604C300.224 96.4671 299.955 97.4681 299.418 98.3633C298.897 99.2422 298.222 99.9909 297.392 100.609C296.562 101.228 295.626 101.7 294.584 102.025C293.542 102.367 292.509 102.538 291.483 102.538C291.044 102.538 290.442 102.489 289.677 102.392C288.928 102.294 288.106 102.09 287.211 101.781C286.332 101.488 285.437 101.057 284.525 100.487C283.614 99.9176 282.784 99.1608 282.035 98.2168C281.303 97.2728 280.701 96.109 280.229 94.7256C279.757 93.3421 279.521 91.682 279.521 89.7451C279.521 88.0199 279.716 86.498 280.106 85.1797C280.513 83.8451 281.042 82.6895 281.693 81.7129C282.361 80.7363 283.109 79.9225 283.939 79.2715C284.77 78.6204 285.616 78.0996 286.479 77.709C287.341 77.3184 288.179 77.0417 288.993 76.8789C289.823 76.6999 290.548 76.6104 291.166 76.6104ZM325.004 85.79C325.004 86.6527 324.955 87.5804 324.857 88.5732C324.76 89.5661 324.613 90.5752 324.418 91.6006C324.239 92.626 324.019 93.6351 323.759 94.6279C323.515 95.6045 323.246 96.5078 322.953 97.3379L328.153 101L318.949 100.609L319.511 97.6064C318.534 98.8271 317.403 99.763 316.117 100.414C314.848 101.049 313.375 101.431 311.698 101.562C310.331 101.659 309.135 101.562 308.109 101.269C307.1 100.992 306.254 100.561 305.57 99.9746C304.903 99.3724 304.407 98.64 304.081 97.7773C303.756 96.8984 303.593 95.9219 303.593 94.8477C303.593 93.8548 303.837 92.8945 304.325 91.9668C304.813 91.0228 305.513 90.1927 306.425 89.4766C307.353 88.7604 308.484 88.1908 309.818 87.7676C311.153 87.3281 312.667 87.1084 314.359 87.1084C315.141 87.1084 316.036 87.1816 317.045 87.3281C318.07 87.4746 319.039 87.7839 319.95 88.2559C319.869 87.263 319.714 86.2539 319.486 85.2285C319.275 84.1868 318.957 83.2428 318.534 82.3965C318.111 81.5501 317.558 80.8665 316.874 80.3457C316.207 79.8086 315.368 79.54 314.359 79.54C313.497 79.54 312.659 79.7191 311.845 80.0771C311.031 80.4352 310.266 80.9479 309.55 81.6152C308.85 82.2826 308.215 83.0964 307.646 84.0566C307.076 85.0169 306.596 86.0993 306.205 87.3037L304.154 75.3408L307.255 80.1016C308.02 79.1576 308.793 78.4089 309.574 77.8555C310.355 77.2858 311.129 76.8545 311.894 76.5615C312.675 76.2523 313.424 76.0488 314.14 75.9512C314.872 75.8535 315.572 75.8047 316.239 75.8047C317.493 75.8698 318.648 76.1302 319.706 76.5859C320.78 77.0254 321.708 77.6683 322.489 78.5146C323.271 79.3447 323.881 80.3701 324.32 81.5908C324.776 82.8115 325.004 84.2113 325.004 85.79ZM319.95 93.6025C319.983 93.1468 320.007 92.7074 320.023 92.2842C320.04 91.861 320.048 91.446 320.048 91.0391V90.7461C319.462 90.5182 318.868 90.3473 318.266 90.2334C317.68 90.1032 317.134 90.0137 316.63 89.9648C316.125 89.8997 315.694 89.8672 315.336 89.8672C314.994 89.8509 314.766 89.8428 314.652 89.8428C313.725 89.8753 312.919 90.0462 312.235 90.3555C311.552 90.6647 310.982 91.0553 310.526 91.5273C310.087 91.9831 309.753 92.4958 309.525 93.0654C309.314 93.6351 309.208 94.1966 309.208 94.75C309.208 96.0033 309.509 96.9554 310.111 97.6064C310.73 98.2412 311.625 98.5586 312.797 98.5586C313.578 98.5586 314.319 98.4202 315.019 98.1436C315.718 97.8669 316.369 97.5007 316.972 97.0449C317.59 96.5729 318.144 96.0439 318.632 95.458C319.136 94.8558 319.576 94.2373 319.95 93.6025ZM330.888 90.3066C330.888 88.7767 331.042 87.2549 331.352 85.7412C331.677 84.2113 332.027 82.8115 332.401 81.542L328.178 81.8105L340.092 68.7979C339.148 71.7764 338.383 74.4619 337.797 76.8545L347.294 77.6602L346.049 80.5898L336.845 81.249C336.617 82.4372 336.438 83.4951 336.308 84.4229C336.194 85.3343 336.096 86.1074 336.015 86.7422C335.933 87.4909 335.876 88.1419 335.844 88.6953C335.844 90.3229 335.941 91.7878 336.137 93.0898C336.332 94.3919 336.633 95.5068 337.04 96.4346C337.463 97.346 337.992 98.054 338.627 98.5586C339.278 99.0469 340.051 99.291 340.946 99.291C341.776 99.291 342.468 99.1283 343.021 98.8027C343.591 98.4609 344.047 98.0296 344.389 97.5088C344.73 96.9717 344.975 96.3776 345.121 95.7266C345.268 95.0592 345.341 94.4001 345.341 93.749C345.341 93.1468 345.292 92.5609 345.194 91.9912C345.894 92.3493 346.423 92.9271 346.781 93.7246C347.156 94.5059 347.343 95.3604 347.343 96.2881C347.343 97.2484 347.18 98.0947 346.854 98.8271C346.545 99.5596 346.114 100.178 345.561 100.683C345.007 101.171 344.356 101.545 343.607 101.806C342.859 102.066 342.053 102.196 341.19 102.196C340.67 102.196 340.051 102.139 339.335 102.025C338.635 101.911 337.903 101.7 337.138 101.391C336.373 101.098 335.616 100.674 334.867 100.121C334.118 99.5677 333.451 98.8516 332.865 97.9727C332.279 97.0938 331.799 96.0277 331.425 94.7744C331.067 93.5049 330.888 92.0156 330.888 90.3066ZM348.368 101.244L352.201 98.2412L351.371 81.3955L346.854 78.4414L357.353 76.6592L355.473 96.2393L360.722 99.5107L348.368 101.244ZM357.621 70.751C357.621 71.2393 357.523 71.7031 357.328 72.1426C357.133 72.5658 356.864 72.9482 356.522 73.29C356.181 73.6156 355.79 73.876 355.351 74.0713C354.911 74.2503 354.447 74.3398 353.959 74.3398C353.438 74.3398 352.95 74.2503 352.494 74.0713C352.055 73.876 351.672 73.6156 351.347 73.29C351.021 72.9482 350.761 72.5658 350.565 72.1426C350.37 71.7031 350.272 71.2393 350.272 70.751C350.272 70.2464 350.37 69.7826 350.565 69.3594C350.761 68.9199 351.021 68.5374 351.347 68.2119C351.672 67.8864 352.055 67.6341 352.494 67.4551C352.95 67.2598 353.438 67.1621 353.959 67.1621C354.447 67.1621 354.911 67.2598 355.351 67.4551C355.79 67.6341 356.181 67.8864 356.522 68.2119C356.864 68.5374 357.133 68.9199 357.328 69.3594C357.523 69.7826 357.621 70.2464 357.621 70.751ZM361.259 88.7441C361.259 86.9212 361.544 85.2367 362.113 83.6904C362.699 82.1279 363.505 80.777 364.53 79.6377C365.572 78.4984 366.801 77.6113 368.217 76.9766C369.649 76.3255 371.212 76 372.904 76C374.548 76 376.054 76.3092 377.421 76.9277C378.788 77.5299 379.976 78.3844 380.985 79.4912C381.994 80.598 382.8 81.9245 383.402 83.4707C384.005 85.0169 384.363 86.7259 384.477 88.5977C384.59 90.5996 384.379 92.4144 383.842 94.042C383.321 95.6533 382.548 97.0286 381.522 98.168C380.497 99.291 379.268 100.162 377.836 100.78C376.42 101.399 374.882 101.708 373.222 101.708C371.627 101.708 370.105 101.423 368.656 100.854C367.224 100.268 365.954 99.4212 364.848 98.3145C363.757 97.2077 362.886 95.8568 362.235 94.2617C361.584 92.6504 361.259 90.8112 361.259 88.7441ZM367.265 89.1592C367.265 90.5915 367.468 91.8854 367.875 93.041C368.282 94.1966 368.827 95.1813 369.511 95.9951C370.194 96.7926 370.984 97.4111 371.879 97.8506C372.774 98.29 373.718 98.5098 374.711 98.5098C375.704 98.5098 376.632 98.2982 377.494 97.875C378.357 97.4355 379.105 96.8252 379.74 96.0439C380.375 95.2464 380.871 94.2943 381.229 93.1875C381.588 92.0807 381.767 90.8519 381.767 89.501C381.767 88.1663 381.588 86.9131 381.229 85.7412C380.871 84.5531 380.367 83.5195 379.716 82.6406C379.081 81.7617 378.324 81.07 377.445 80.5654C376.566 80.0609 375.606 79.8086 374.564 79.8086C373.637 79.8086 372.733 80.0202 371.854 80.4434C370.992 80.8665 370.219 81.485 369.535 82.2988C368.852 83.0964 368.298 84.0729 367.875 85.2285C367.468 86.3841 367.265 87.6943 367.265 89.1592ZM409.55 85.8389C409.55 86.7503 409.509 87.7106 409.428 88.7197C409.346 89.7288 409.224 90.738 409.062 91.7471C408.899 92.7562 408.695 93.7409 408.451 94.7012C408.223 95.6615 407.955 96.5404 407.646 97.3379L412.455 98.9004L399.735 101.391L404.057 98.1436C404.398 96.8903 404.626 95.6859 404.74 94.5303C404.87 93.3747 404.936 92.2842 404.936 91.2588C404.936 90.6403 404.911 89.9404 404.862 89.1592C404.83 88.3617 404.74 87.556 404.594 86.7422C404.464 85.9284 404.268 85.1309 404.008 84.3496C403.764 83.5684 403.438 82.8766 403.031 82.2744C402.624 81.6559 402.12 81.1676 401.518 80.8096C400.932 80.4352 400.224 80.248 399.394 80.248C398.433 80.248 397.457 80.5654 396.464 81.2002C395.471 81.835 394.551 82.7708 393.705 84.0078V97.5088L397.733 100.39L385.648 101.244L388.847 97.7041L390.556 79.9551L385.355 77.3916L393.705 76.5615V80.248C394.177 79.597 394.698 78.9867 395.268 78.417C395.837 77.8473 396.439 77.359 397.074 76.9521C397.709 76.529 398.368 76.2035 399.052 75.9756C399.752 75.7314 400.468 75.6094 401.2 75.6094C402.616 75.6094 403.845 75.8698 404.887 76.3906C405.928 76.9115 406.791 77.6357 407.475 78.5635C408.174 79.4749 408.695 80.5573 409.037 81.8105C409.379 83.0475 409.55 84.3903 409.55 85.8389Z" fill="black" fill-opacity="0.7"/>
<path d="M206.22 152.909C203.406 152.1 201.355 151.109 200.067 149.935C198.791 148.75 198.153 147.292 198.153 145.56C198.153 143.6 198.934 141.983 200.495 140.707C202.067 139.419 204.106 138.775 206.613 138.775C208.322 138.775 209.843 139.106 211.176 139.767C212.52 140.427 213.557 141.339 214.286 142.501C215.027 143.663 215.397 144.933 215.397 146.312H212.099C212.099 144.808 211.62 143.629 210.663 142.774C209.706 141.909 208.356 141.476 206.613 141.476C204.995 141.476 203.73 141.834 202.819 142.552C201.919 143.259 201.469 144.244 201.469 145.509C201.469 146.523 201.896 147.383 202.75 148.089C203.616 148.784 205.08 149.422 207.143 150.003C209.216 150.584 210.834 151.228 211.996 151.935C213.17 152.63 214.035 153.444 214.594 154.378C215.163 155.313 215.448 156.412 215.448 157.677C215.448 159.693 214.662 161.311 213.09 162.53C211.518 163.738 209.416 164.342 206.784 164.342C205.075 164.342 203.48 164.017 201.999 163.368C200.517 162.707 199.372 161.807 198.563 160.667C197.766 159.528 197.367 158.235 197.367 156.788H200.666C200.666 158.292 201.218 159.483 202.323 160.36C203.44 161.226 204.927 161.659 206.784 161.659C208.515 161.659 209.843 161.306 210.766 160.599C211.688 159.893 212.15 158.93 212.15 157.711C212.15 156.492 211.723 155.552 210.868 154.891C210.014 154.219 208.464 153.558 206.22 152.909ZM234.794 154.959C234.794 157.774 234.15 160.041 232.863 161.761C231.575 163.482 229.832 164.342 227.633 164.342C225.389 164.342 223.623 163.63 222.335 162.206V171.109H219.174V145.509H222.062L222.216 147.56C223.503 145.965 225.292 145.167 227.582 145.167C229.804 145.167 231.558 146.004 232.846 147.679C234.145 149.354 234.794 151.684 234.794 154.669V154.959ZM231.632 154.601C231.632 152.516 231.188 150.869 230.299 149.662C229.411 148.454 228.192 147.85 226.642 147.85C224.728 147.85 223.292 148.699 222.335 150.396V159.232C223.281 160.918 224.728 161.761 226.676 161.761C228.192 161.761 229.394 161.163 230.282 159.967C231.182 158.759 231.632 156.97 231.632 154.601ZM247.765 148.346C247.287 148.266 246.768 148.226 246.21 148.226C244.136 148.226 242.729 149.109 241.989 150.875V164H238.827V145.509H241.903L241.955 147.645C242.991 145.993 244.461 145.167 246.364 145.167C246.979 145.167 247.446 145.247 247.765 145.406V148.346ZM258.019 164.342C255.513 164.342 253.473 163.521 251.901 161.881C250.329 160.229 249.542 158.024 249.542 155.267V154.686C249.542 152.852 249.89 151.217 250.585 149.781C251.291 148.334 252.271 147.206 253.524 146.397C254.789 145.577 256.156 145.167 257.626 145.167C260.03 145.167 261.898 145.959 263.231 147.542C264.564 149.126 265.231 151.393 265.231 154.344V155.66H252.704C252.75 157.483 253.279 158.958 254.293 160.086C255.319 161.203 256.618 161.761 258.19 161.761C259.306 161.761 260.252 161.533 261.027 161.078C261.802 160.622 262.479 160.018 263.061 159.266L264.992 160.77C263.442 163.151 261.118 164.342 258.019 164.342ZM257.626 147.765C256.35 147.765 255.279 148.232 254.413 149.166C253.547 150.089 253.012 151.388 252.807 153.062H262.069V152.823C261.978 151.217 261.545 149.975 260.771 149.098C259.996 148.209 258.948 147.765 257.626 147.765ZM280.321 164C280.139 163.635 279.991 162.986 279.877 162.052C278.407 163.578 276.653 164.342 274.613 164.342C272.79 164.342 271.292 163.829 270.119 162.804C268.957 161.767 268.375 160.457 268.375 158.873C268.375 156.948 269.105 155.455 270.563 154.396C272.033 153.325 274.095 152.789 276.75 152.789H279.826V151.336C279.826 150.231 279.495 149.354 278.834 148.705C278.174 148.044 277.2 147.713 275.912 147.713C274.784 147.713 273.839 147.998 273.075 148.568C272.312 149.138 271.93 149.827 271.93 150.636H268.751C268.751 149.713 269.076 148.824 269.726 147.97C270.386 147.104 271.275 146.42 272.392 145.919C273.52 145.418 274.756 145.167 276.1 145.167C278.231 145.167 279.9 145.702 281.107 146.773C282.315 147.833 282.942 149.297 282.987 151.166V159.676C282.987 161.374 283.204 162.724 283.637 163.727V164H280.321ZM275.075 161.59C276.066 161.59 277.006 161.334 277.895 160.821C278.783 160.309 279.427 159.642 279.826 158.822V155.028H277.348C273.474 155.028 271.537 156.161 271.537 158.429C271.537 159.42 271.868 160.195 272.528 160.753C273.189 161.311 274.038 161.59 275.075 161.59ZM287.174 154.601C287.174 151.764 287.847 149.485 289.191 147.765C290.535 146.033 292.296 145.167 294.472 145.167C296.636 145.167 298.351 145.908 299.616 147.389V137.75H302.777V164H299.872L299.718 162.018C298.454 163.567 296.693 164.342 294.438 164.342C292.296 164.342 290.547 163.465 289.191 161.71C287.847 159.955 287.174 157.665 287.174 154.84V154.601ZM290.336 154.959C290.336 157.056 290.769 158.696 291.635 159.881C292.501 161.066 293.697 161.659 295.224 161.659C297.229 161.659 298.693 160.759 299.616 158.958V150.465C298.67 148.722 297.217 147.85 295.258 147.85C293.708 147.85 292.501 148.448 291.635 149.645C290.769 150.841 290.336 152.612 290.336 154.959ZM311.134 164H307.973V145.509H311.134V164ZM307.716 140.604C307.716 140.091 307.87 139.658 308.178 139.305C308.497 138.952 308.964 138.775 309.579 138.775C310.194 138.775 310.661 138.952 310.98 139.305C311.299 139.658 311.459 140.091 311.459 140.604C311.459 141.117 311.299 141.544 310.98 141.886C310.661 142.228 310.194 142.398 309.579 142.398C308.964 142.398 308.497 142.228 308.178 141.886C307.87 141.544 307.716 141.117 307.716 140.604ZM319.201 145.509L319.303 147.833C320.716 146.056 322.562 145.167 324.84 145.167C328.748 145.167 330.719 147.372 330.753 151.781V164H327.592V151.764C327.58 150.431 327.273 149.445 326.669 148.807C326.076 148.169 325.148 147.85 323.883 147.85C322.858 147.85 321.958 148.124 321.183 148.67C320.408 149.217 319.805 149.935 319.372 150.824V164H316.21V145.509H319.201ZM334.77 154.601C334.77 151.718 335.436 149.428 336.769 147.73C338.102 146.021 339.868 145.167 342.067 145.167C344.323 145.167 346.083 145.965 347.348 147.56L347.501 145.509H350.39V163.556C350.39 165.948 349.678 167.834 348.253 169.212C346.841 170.591 344.938 171.28 342.545 171.28C341.212 171.28 339.908 170.995 338.632 170.426C337.356 169.856 336.382 169.076 335.709 168.084L337.35 166.188C338.706 167.862 340.364 168.7 342.323 168.7C343.861 168.7 345.058 168.267 345.912 167.401C346.778 166.535 347.211 165.316 347.211 163.744V162.154C345.946 163.613 344.22 164.342 342.033 164.342C339.868 164.342 338.113 163.47 336.769 161.727C335.436 159.984 334.77 157.608 334.77 154.601ZM337.948 154.959C337.948 157.044 338.375 158.685 339.23 159.881C340.084 161.066 341.281 161.659 342.819 161.659C344.813 161.659 346.277 160.753 347.211 158.941V150.499C346.243 148.733 344.79 147.85 342.853 147.85C341.315 147.85 340.113 148.448 339.247 149.645C338.381 150.841 337.948 152.612 337.948 154.959ZM378.417 152.499H367.633V161.317H380.16V164H364.352V139.117H379.989V141.817H367.633V149.815H378.417V152.499ZM382.638 154.601C382.638 151.764 383.31 149.485 384.655 147.765C385.999 146.033 387.759 145.167 389.936 145.167C392.1 145.167 393.815 145.908 395.08 147.389V137.75H398.241V164H395.336L395.182 162.018C393.917 163.567 392.157 164.342 389.901 164.342C387.759 164.342 386.011 163.465 384.655 161.71C383.31 159.955 382.638 157.665 382.638 154.84V154.601ZM385.8 154.959C385.8 157.056 386.233 158.696 387.099 159.881C387.965 161.066 389.161 161.659 390.688 161.659C392.693 161.659 394.157 160.759 395.08 158.958V150.465C394.134 148.722 392.681 147.85 390.722 147.85C389.172 147.85 387.965 148.448 387.099 149.645C386.233 150.841 385.8 152.612 385.8 154.959ZM414.579 162.171C413.349 163.618 411.543 164.342 409.162 164.342C407.191 164.342 405.687 163.772 404.65 162.633C403.625 161.482 403.106 159.785 403.095 157.54V145.509H406.256V157.455C406.256 160.257 407.396 161.659 409.674 161.659C412.09 161.659 413.696 160.759 414.494 158.958V145.509H417.655V164H414.647L414.579 162.171ZM429.892 161.761C431.02 161.761 432.005 161.419 432.848 160.736C433.691 160.052 434.158 159.198 434.25 158.172H437.24C437.183 159.232 436.819 160.24 436.146 161.197C435.474 162.154 434.574 162.918 433.446 163.487C432.33 164.057 431.145 164.342 429.892 164.342C427.374 164.342 425.368 163.504 423.876 161.83C422.395 160.143 421.654 157.842 421.654 154.925V154.396C421.654 152.595 421.985 150.995 422.646 149.593C423.306 148.192 424.252 147.104 425.482 146.329C426.724 145.554 428.188 145.167 429.875 145.167C431.948 145.167 433.668 145.788 435.036 147.03C436.414 148.272 437.149 149.884 437.24 151.866H434.25C434.158 150.67 433.703 149.69 432.882 148.927C432.073 148.152 431.071 147.765 429.875 147.765C428.268 147.765 427.021 148.346 426.132 149.508C425.255 150.659 424.816 152.328 424.816 154.515V155.113C424.816 157.244 425.255 158.884 426.132 160.035C427.009 161.186 428.262 161.761 429.892 161.761ZM452.211 164C452.029 163.635 451.881 162.986 451.767 162.052C450.297 163.578 448.542 164.342 446.503 164.342C444.68 164.342 443.182 163.829 442.008 162.804C440.846 161.767 440.265 160.457 440.265 158.873C440.265 156.948 440.994 155.455 442.453 154.396C443.922 153.325 445.985 152.789 448.639 152.789H451.715V151.336C451.715 150.231 451.385 149.354 450.724 148.705C450.063 148.044 449.089 147.713 447.802 147.713C446.674 147.713 445.728 147.998 444.965 148.568C444.201 149.138 443.82 149.827 443.82 150.636H440.641C440.641 149.713 440.966 148.824 441.615 147.97C442.276 147.104 443.165 146.42 444.281 145.919C445.409 145.418 446.645 145.167 447.99 145.167C450.12 145.167 451.789 145.702 452.997 146.773C454.205 147.833 454.831 149.297 454.877 151.166V159.676C454.877 161.374 455.093 162.724 455.526 163.727V164H452.211ZM446.964 161.59C447.956 161.59 448.896 161.334 449.784 160.821C450.673 160.309 451.317 159.642 451.715 158.822V155.028H449.237C445.364 155.028 443.427 156.161 443.427 158.429C443.427 159.42 443.757 160.195 444.418 160.753C445.079 161.311 445.928 161.59 446.964 161.59ZM464.123 141.031V145.509H467.575V147.953H464.123V159.42C464.123 160.16 464.276 160.719 464.584 161.095C464.892 161.459 465.416 161.642 466.156 161.642C466.521 161.642 467.022 161.573 467.66 161.437V164C466.828 164.228 466.02 164.342 465.233 164.342C463.821 164.342 462.755 163.915 462.038 163.06C461.32 162.206 460.961 160.992 460.961 159.42V147.953H457.594V145.509H460.961V141.031H464.123ZM474.718 164H471.557V145.509H474.718V164ZM471.3 140.604C471.3 140.091 471.454 139.658 471.762 139.305C472.081 138.952 472.548 138.775 473.163 138.775C473.778 138.775 474.245 138.952 474.564 139.305C474.883 139.658 475.043 140.091 475.043 140.604C475.043 141.117 474.883 141.544 474.564 141.886C474.245 142.228 473.778 142.398 473.163 142.398C472.548 142.398 472.081 142.228 471.762 141.886C471.454 141.544 471.3 141.117 471.3 140.604ZM478.957 154.583C478.957 152.772 479.31 151.143 480.016 149.696C480.734 148.249 481.725 147.132 482.99 146.346C484.266 145.56 485.718 145.167 487.348 145.167C489.866 145.167 491.899 146.039 493.449 147.782C495.01 149.525 495.79 151.843 495.79 154.737V154.959C495.79 156.76 495.443 158.377 494.748 159.813C494.064 161.237 493.078 162.348 491.791 163.146C490.515 163.943 489.045 164.342 487.382 164.342C484.875 164.342 482.842 163.47 481.281 161.727C479.731 159.984 478.957 157.677 478.957 154.806V154.583ZM482.135 154.959C482.135 157.01 482.608 158.657 483.554 159.898C484.511 161.14 485.787 161.761 487.382 161.761C488.988 161.761 490.264 161.135 491.21 159.881C492.156 158.617 492.628 156.851 492.628 154.583C492.628 152.556 492.144 150.915 491.176 149.662C490.219 148.397 488.943 147.765 487.348 147.765C485.787 147.765 484.528 148.386 483.571 149.627C482.614 150.869 482.135 152.647 482.135 154.959ZM502.746 145.509L502.848 147.833C504.261 146.056 506.107 145.167 508.385 145.167C512.293 145.167 514.264 147.372 514.298 151.781V164H511.137V151.764C511.125 150.431 510.818 149.445 510.214 148.807C509.621 148.169 508.693 147.85 507.428 147.85C506.403 147.85 505.503 148.124 504.728 148.67C503.953 149.217 503.349 149.935 502.917 150.824V164H499.755V145.509H502.746ZM519.135 162.342C519.135 161.795 519.294 161.34 519.613 160.975C519.944 160.611 520.434 160.428 521.083 160.428C521.732 160.428 522.222 160.611 522.553 160.975C522.895 161.34 523.065 161.795 523.065 162.342C523.065 162.866 522.895 163.305 522.553 163.658C522.222 164.011 521.732 164.188 521.083 164.188C520.434 164.188 519.944 164.011 519.613 163.658C519.294 163.305 519.135 162.866 519.135 162.342Z" fill="black"/>
</g>
<defs>
<filter id="filter0_d" x="14.7985" y="12.5059" width="96.1432" height="198.987" filterUnits="userSpaceOnUse" color-interpolation-filters="sRGB">
<feFlood flood-opacity="0" result="BackgroundImageFix"/>
<feColorMatrix in="SourceAlpha" type="matrix" values="0 0 0 0 0 0 0 0 0 0 0 0 0 0 0 0 0 0 127 0"/>
<feOffset dy="4"/>
<feGaussianBlur stdDeviation="2"/>
<feColorMatrix type="matrix" values="0 0 0 0 0.4625 0 0 0 0 0.431667 0 0 0 0 0.431667 0 0 0 1 0"/>
<feBlend mode="normal" in2="BackgroundImageFix" result="effect1_dropShadow"/>
<feBlend mode="normal" in="SourceGraphic" in2="effect1_dropShadow" result="shape"/>
</filter>
<filter id="filter1_d" x="24.2909" y="71.6533" width="158.117" height="139.458" filterUnits="userSpaceOnUse" color-interpolation-filters="sRGB">
<feFlood flood-opacity="0" result="BackgroundImageFix"/>
<feColorMatrix in="SourceAlpha" type="matrix" values="0 0 0 0 0 0 0 0 0 0 0 0 0 0 0 0 0 0 127 0"/>
<feOffset dy="4"/>
<feGaussianBlur stdDeviation="2"/>
<feColorMatrix type="matrix" values="0 0 0 0 0 0 0 0 0 0 0 0 0 0 0 0 0 0 0.25 0"/>
<feBlend mode="normal" in2="BackgroundImageFix" result="effect1_dropShadow"/>
<feBlend mode="normal" in="SourceGraphic" in2="effect1_dropShadow" result="shape"/>
</filter>
<clipPath id="clip0">
<rect width="536" height="228" fill="white"/>
</clipPath>
</defs>
</svg>
